PathFileType	4	(X/Y/Z)	OpenSim_Sub08_CSBaseline_Gyro.trc
DataRate	CameraRate	NumFrames	NumMarkers	Units	OrigDataRate	OrigDataStartFrame	OrigNumFrames
100	100	27	8	m	100	683	5461
Frame#	Time	torso_imu_offset_imu	pelvis_imu_offset_imu	tibia_r_imu_offset_imu	femur_r_imu_offset_imu	tibia_l_imu_offset_imu	femur_l_imu_offset_imu	toes_r_imu_offset_imu	toes_l_imu_offset_imu
				X1	Y1	Z1	X2	Y2	Z2	X3	Y3	Z3	X4	Y4	Z4	X5	Y5	Z5	X6	Y6	Z6	X7	Y7	Z7	X8		Y8	Z8	

683	6.82000000	-0.06985000	-0.20077600	-0.07477400	0.41873100	0.29643600	0.02629100	1.70073000	0.95700700	4.33290600	-0.54566200	0.12869800	-0.42319800	0.31993300	-0.17701300	0.72580700	0.42546400	-0.26288400	0.45078600	-0.61025400	3.82420200	2.85965400	0.00636100	-0.11272300	0.19113900
684	6.83000000	-0.04949100	-0.17358500	-0.08983600	0.46603300	0.32054000	0.02328100	1.99791800	1.00950100	4.16885100	-0.41428700	0.17260000	-0.46912500	0.35561800	-0.15826400	0.80091200	0.50039400	-0.19173000	0.42721400	-0.49329300	3.58287300	3.11779200	0.08612200	-0.08710200	0.17589100
685	6.84000000	-0.03026300	-0.15137400	-0.09875600	0.49173500	0.30063900	0.02171000	2.04866900	1.02427800	4.06513300	-0.29006000	0.14836800	-0.51168900	0.39999400	-0.16612700	0.84961400	0.53573500	-0.12516500	0.40071900	-0.43174500	3.28815900	3.36542000	0.07054700	-0.11886500	0.17983300
686	6.85000000	0.00193600	-0.12935700	-0.09232700	0.50613600	0.26191300	0.02823600	1.71487800	0.98988400	3.87590500	-0.14841300	0.11762400	-0.55266400	0.45038300	-0.15915500	0.88547600	0.52868700	-0.07991300	0.36398200	-0.31826800	2.94111100	3.52715800	0.09898600	-0.17528100	0.15785800
687	6.86000000	0.03092600	-0.11536600	-0.08784100	0.50476500	0.21570200	0.04224500	1.24242200	0.94989300	3.54697300	0.05312000	0.10712700	-0.57819300	0.48182500	-0.13175500	0.93237600	0.49740000	-0.05593800	0.34296900	-0.16769100	2.59846000	3.58170700	0.10696800	-0.15628700	0.14558700
688	6.87000000	0.04913600	-0.11665900	-0.07655700	0.51316800	0.17438400	0.05323900	0.90449200	0.87561400	3.14515400	0.34409900	0.12162400	-0.57447700	0.47392800	-0.11946300	1.00963300	0.45647400	-0.03767100	0.33901500	0.01595300	2.28793900	3.47482800	0.13367700	-0.19256700	0.12769600
689	6.88000000	0.05451900	-0.12348400	-0.06124000	0.52560900	0.16286500	0.08063000	0.78561400	0.74409100	2.72302000	0.62830000	0.14616700	-0.53976400	0.43619000	-0.10312400	1.04879700	0.42616800	-0.02296200	0.34238400	0.29860500	2.00532500	3.15498100	0.15934000	-0.19159200	0.11998500
690	6.89000000	0.04198400	-0.13293800	-0.04757200	0.52562600	0.17454000	0.11479400	0.91112600	0.60304400	2.26912000	0.76546900	0.15717700	-0.47802300	0.42295800	-0.09598200	1.06008100	0.38765900	-0.00715200	0.34745300	0.48935900	1.68940800	2.65412300	0.14309700	-0.22190800	0.14115300
691	6.90000000	0.03417900	-0.13920800	-0.03768100	0.48758600	0.18007000	0.15895500	1.11870900	0.46344300	1.80553400	0.79745900	0.11364200	-0.41802500	0.42607800	-0.09597000	1.06094900	0.35736200	-0.00639800	0.37296300	0.39111900	1.33523900	2.07959200	0.17712200	-0.23998700	0.17882600
692	6.91000000	0.01764100	-0.14432700	-0.01633100	0.41186600	0.16689200	0.19143300	1.23164100	0.32172600	1.32635100	0.83540200	0.01161100	-0.35724000	0.43418300	-0.10663800	1.09958300	0.35136200	-0.00511700	0.40210200	-0.04304400	0.97476600	1.51183200	0.14734500	-0.26053700	0.21320000
693	6.92000000	0.00809000	-0.14516700	-0.00948200	0.33683800	0.14678100	0.22990700	1.15736700	0.16247800	0.81186000	0.90315100	-0.13267200	-0.31494800	0.43814300	-0.12056000	1.12461100	0.36326700	-0.01199300	0.42603300	-0.31333100	0.59984900	1.00828500	0.24398500	-0.26307200	0.26523600
694	6.93000000	-0.01653600	-0.13019900	0.00497400	0.27505200	0.12038800	0.24021200	0.88444400	-0.01404400	0.28374100	0.97621900	-0.24147500	-0.25558700	0.43983200	-0.09205700	1.13935800	0.37274600	-0.02316800	0.41484700	-0.27914800	0.20849300	0.56748800	0.04135900	-0.35422300	0.23556400
695	6.94000000	-0.03318200	-0.12055700	0.00323800	0.22266700	0.07494500	0.25456600	0.51051600	-0.18914100	-0.20812100	0.95608600	-0.29996400	-0.15202100	0.37420200	-0.04361100	1.15103600	0.41375500	-0.04299000	0.42057000	-0.12758800	-0.16235300	0.19639200	0.28482500	-0.42472600	0.19144200
696	6.95000000	-0.05085900	-0.09344200	0.00046800	0.18017300	-0.00441800	0.26011700	0.12444700	-0.35348300	-0.64101800	0.80862400	-0.37311900	-0.00095400	0.24541300	-0.04491800	1.18307600	0.44917900	-0.02491600	0.47472900	0.05135500	-0.48713900	-0.15904100	0.18076500	-0.47107600	0.19497400
697	6.96000000	-0.06232200	-0.05676800	-0.01539500	0.13966200	-0.07369700	0.25016900	-0.16258500	-0.52319400	-1.00569400	0.58485100	-0.42885000	0.14679500	0.18016600	-0.02695000	1.19156800	0.46574100	-0.01346700	0.50985100	0.15714300	-0.79015100	-0.49866200	0.25669000	-0.55432300	0.14556700
698	6.97000000	-0.06282200	-0.02978900	-0.04096200	0.11157300	-0.12481400	0.23991600	-0.25024300	-0.67232600	-1.31596900	0.38953100	-0.48489900	0.21303900	0.17979400	-0.00729100	1.20443800	0.44737200	-0.02962900	0.54464300	-0.18436400	-1.00575100	-0.77881900	0.28144900	-0.64655700	0.10026100
699	6.98000000	-0.06834100	0.04754700	-0.06002700	0.08841900	-0.16146900	0.21737400	-0.27494700	-0.84004000	-1.58022300	0.25274500	-0.55932200	0.19133600	0.27901600	0.00982100	1.21442700	0.43353200	-0.03918800	0.59742300	0.69558700	-1.05065300	-1.24993500	0.27653200	-0.76381900	0.06574000
700	6.99000000	-0.07839400	0.11502100	-0.07354700	0.08074500	-0.13991400	0.19659400	-0.43847300	-1.05708400	-1.69173800	0.20296700	-0.61540600	0.06987000	0.35227100	0.03019600	1.21818000	0.45031100	-0.03300300	0.69486600	1.50310600	-1.87082800	-1.54866400	0.28901300	-0.87166800	0.01518100
701	7	-0.07379000	0.15074800	-0.08711000	0.04999200	-0.09914800	0.18633200	-1.01329900	-1.06942400	-1.30207700	0.21473500	-0.65308100	-0.11384600	0.37283200	0.06257000	1.26102100	0.52264200	0.00749800	0.77833800	0.50014500	-1.58953300	-1.09026500	0.27690100	-1.03123400	-0.05390700
702	7.01000000	-0.07217100	0.22138300	-0.08850700	-0.07155500	-0.11401900	0.19557400	-1.62027700	-0.70393000	-0.31277400	0.22414300	-0.58401100	-0.40069000	0.31144200	0.10474900	1.31657300	0.56345400	0.04650100	0.82294700	0.33105900	-2.74696900	-1.03824300	0.31714100	-1.17291600	-0.14913100
703	7.02000000	-0.06949500	0.30556700	-0.10751800	-0.26327600	-0.20573500	0.20471500	-0.86215700	-0.41108900	0.36382900	0.04623600	-0.40990700	-0.72616900	0.26072000	0.13069200	1.35549800	0.54267600	0.05042900	0.82162800	0.93180500	-3.19381000	-0.92541900	0.30914100	-1.41210600	-0.17819200
704	7.03000000	-0.07041200	0.38590400	-0.12603100	-0.40743300	-0.24988500	0.21416000	1.01755400	-0.38386800	0.15087300	-0.27712100	-0.23756900	-0.89604900	0.25222400	0.13007300	1.39172600	0.48615500	0.06016300	0.80676300	0.52857200	-2.65678600	-0.58314500	0.30349600	-1.65524700	-0.14623200
705	7.04000000	-0.06911200	0.44206400	-0.10880500	-0.44525800	-0.17523000	0.23803900	1.82759600	-0.61291300	-0.62835500	-0.47654300	-0.10584100	-0.89449200	0.25702900	0.10185300	1.47482800	0.39307300	0.09368700	0.78764300	0.94859600	-2.47693100	-0.69685000	0.31942700	-1.92024800	-0.09491300
706	7.05000000	-0.07452400	0.47894700	-0.12764400	-0.49662000	-0.08342900	0.26333200	1.60728400	-0.80468300	-1.45358900	-0.59317900	0.07382900	-0.85121700	0.29132200	0.10634200	1.59273000	0.26583300	0.11905700	0.74023300	0.13844600	-2.68993700	-0.65645100	0.30341800	-2.23640600	-0.04503100
707	7.06000000	-0.07812600	0.51261700	-0.14331000	-0.60867300	-0.07125200	0.25723900	1.65283400	-0.62551300	-1.70477800	-0.80944300	0.24910300	-0.71661100	0.31532300	0.12241600	1.73593600	0.10901000	0.14394600	0.66309900	-0.46690900	-2.42322900	-0.55620200	0.15266200	-2.56771400	-0.04150700
708	7.07000000	-0.07988800	0.53571400	-0.14532500	-0.72215900	-0.08819100	0.21009100	2.15855400	-0.35345100	-1.35062400	-0.98213400	0.17754000	-0.39636600	0.35647200	0.12367600	1.84922400	-0.07241100	0.16905100	0.53839300	-0.38366400	-1.93387900	-0.44221400	-0.00508000	-2.98437700	-0.04660300
709	7.08000000	-0.10304800	0.53420800	-0.18855600	-0.84349700	-0.11109300	0.15782100	2.33381300	-0.27610000	-0.87603600	-0.89108900	-0.12878500	-0.08897900	0.40607300	0.08499500	1.97666000	-0.26254100	0.20429400	0.37724300	-0.10752800	-1.71681500	-0.21490300	-0.20428900	-3.36926400	-0.10890900
